<svg xmlns="http://www.w3.org/2000/svg" xmlns:xlink="http://www.w3.org/1999/xlink" width="500" zoomAndPan="magnify" viewBox="0 0 375 374.999991" height="500" preserveAspectRatio="xMidYMid meet" version="1.0"><path fill="#0e9a48" d="M 151.445312 273.414062 L 151.445312 237.460938 C 152.734375 236.964844 153.992188 236.378906 155.203125 235.664062 C 172.347656 225.558594 174.148438 196.847656 159.226562 171.542969 C 144.300781 146.238281 118.304688 133.917969 101.160156 144.023438 C 84.015625 154.128906 82.210938 182.835938 97.136719 208.144531 C 99.542969 212.226562 102.242188 215.960938 105.140625 219.328125 L 105.140625 246.039062 L 68.1875 224.894531 L 68.1875 92.476562 L 55.234375 83.925781 C 43.4375 105.417969 36.726562 130.101562 36.726562 156.347656 C 36.726562 237.902344 101.453125 304.296875 182.371094 306.976562 L 182.386719 291.441406 Z M 151.445312 273.414062 " fill-opacity="1" fill-rule="nonzero"/><path fill="#cb2026" d="M 108.527344 62.996094 L 131.113281 76.378906 C 130.667969 80.085938 130.652344 84.171875 130.667969 85.578125 C 130.875 105.472656 157.824219 120.601562 187.207031 120.296875 C 216.589844 119.992188 237.515625 102.195312 237.367188 84.6875 C 237.203125 64.789062 218.0625 49.210938 188.691406 48.335938 C 178.75 48.039062 169.164062 50.023438 164.800781 50.859375 L 148.328125 40.324219 L 187.503906 17.972656 L 303 85.09375 L 316.246094 77.824219 C 303.503906 56.875 285.457031 38.75 262.703125 25.652344 C 192.011719 -15.039062 102.160156 7.914062 59.464844 76.6875 L 72.601562 84.980469 Z M 108.527344 62.996094 " fill-opacity="1" fill-rule="nonzero"/><path fill="#35469d" d="M 306.898438 135.949219 L 282.335938 148.78125 C 281.445312 148.632812 275.996094 143.53125 274.769531 142.847656 C 257.382812 133.164062 231.785156 145.96875 217.484375 171.632812 C 203.183594 197.292969 204.402344 226.632812 221.789062 236.320312 C 239.175781 246.003906 265.066406 234.386719 279.367188 208.722656 C 281.675781 204.585938 284.753906 194.972656 286.195312 190.769531 L 307.117188 178.679688 L 306.996094 224.59375 L 191.808594 291.847656 L 191.863281 307 C 216.378906 306.320312 241.074219 299.636719 263.726562 286.375 C 334.117188 245.167969 358.722656 155.773438 320.144531 84.609375 L 306.898438 91.882812 Z M 306.898438 135.949219 " fill-opacity="1" fill-rule="nonzero"/><path fill="#010101" d="M 59.984375 320.667969 L 89.527344 320.667969 L 89.527344 329.628906 L 70.957031 329.628906 L 70.957031 340.667969 L 88.308594 340.667969 L 88.308594 349.558594 L 70.957031 349.558594 L 70.957031 368.984375 L 59.984375 368.984375 Z M 59.984375 320.667969 " fill-opacity="1" fill-rule="nonzero"/><path fill="#010101" d="M 104.222656 356.582031 L 100.78125 368.984375 L 89.453125 368.984375 L 104.222656 320.667969 L 118.5625 320.667969 L 133.550781 368.984375 L 121.789062 368.984375 L 118.0625 356.582031 Z M 116.484375 348.410156 L 113.472656 338.160156 C 112.613281 335.292969 111.753906 331.707031 111.035156 328.839844 L 110.890625 328.839844 C 110.175781 331.707031 109.457031 335.363281 108.667969 338.160156 L 105.800781 348.410156 Z M 116.484375 348.410156 " fill-opacity="1" fill-rule="nonzero"/><path fill="#010101" d="M 140 321.3125 C 142.867188 320.742188 148.675781 320.308594 154.125 320.308594 C 160.792969 320.308594 164.878906 320.957031 168.394531 323.035156 C 171.761719 324.824219 174.199219 328.125 174.199219 332.496094 C 174.199219 336.796875 171.691406 340.8125 166.242188 342.820312 L 166.242188 342.960938 C 171.761719 344.46875 175.847656 348.625 175.847656 354.863281 C 175.847656 359.234375 173.839844 362.675781 170.828125 365.113281 C 167.316406 367.910156 161.4375 369.484375 151.828125 369.484375 C 146.453125 369.484375 142.4375 369.128906 140 368.769531 Z M 150.824219 339.808594 L 154.410156 339.808594 C 160.148438 339.808594 163.230469 337.441406 163.230469 333.859375 C 163.230469 330.203125 160.433594 328.265625 155.488281 328.265625 C 153.121094 328.265625 151.757812 328.410156 150.824219 328.554688 Z M 150.824219 361.242188 C 151.902344 361.386719 153.191406 361.386719 155.054688 361.386719 C 160.003906 361.386719 164.378906 359.523438 164.378906 354.433594 C 164.378906 349.558594 160.003906 347.621094 154.554688 347.621094 L 150.824219 347.621094 Z M 150.824219 361.242188 " fill-opacity="1" fill-rule="nonzero"/><path fill="#010101" d="M 197.785156 320.667969 L 208.757812 320.667969 L 208.757812 359.808594 L 227.972656 359.808594 L 227.972656 368.984375 L 197.789062 368.984375 L 197.789062 320.667969 Z M 197.785156 320.667969 " fill-opacity="1" fill-rule="nonzero"/><path fill="#010101" d="M 246.109375 356.582031 L 242.667969 368.984375 L 231.339844 368.984375 L 246.109375 320.667969 L 260.449219 320.667969 L 275.4375 368.984375 L 263.675781 368.984375 L 259.949219 356.582031 Z M 258.371094 348.410156 L 255.359375 338.160156 C 254.5 335.292969 253.640625 331.707031 252.921875 328.839844 L 252.777344 328.839844 C 252.0625 331.707031 251.34375 335.363281 250.554688 338.160156 L 247.6875 348.410156 Z M 258.371094 348.410156 " fill-opacity="1" fill-rule="nonzero"/><path fill="#010101" d="M 281.886719 321.3125 C 284.753906 320.742188 290.5625 320.308594 296.011719 320.308594 C 302.679688 320.308594 306.765625 320.957031 310.28125 323.035156 C 313.648438 324.824219 316.085938 328.125 316.085938 332.496094 C 316.085938 336.796875 313.578125 340.8125 308.128906 342.820312 L 308.128906 342.960938 C 313.648438 344.46875 317.734375 348.625 317.734375 354.863281 C 317.734375 359.234375 315.726562 362.675781 312.714844 365.113281 C 309.203125 367.910156 303.324219 369.484375 293.714844 369.484375 C 288.339844 369.484375 284.324219 369.128906 281.886719 368.769531 Z M 292.714844 339.808594 L 296.296875 339.808594 C 302.035156 339.808594 305.117188 337.441406 305.117188 333.859375 C 305.117188 330.203125 302.320312 328.265625 297.375 328.265625 C 295.007812 328.265625 293.644531 328.410156 292.714844 328.554688 Z M 292.714844 361.242188 C 293.789062 361.386719 295.078125 361.386719 296.941406 361.386719 C 301.890625 361.386719 306.265625 359.523438 306.265625 354.433594 C 306.265625 349.558594 301.890625 347.621094 296.441406 347.621094 L 292.710938 347.621094 L 292.710938 361.242188 Z M 292.714844 361.242188 " fill-opacity="1" fill-rule="nonzero"/></svg>