<?xml version="1.0" encoding="UTF-8"?>
<!DOCTYPE svg PUBLIC "-//W3C//DTD SVG 1.1//EN" "http://www.w3.org/Graphics/SVG/1.1/DTD/svg11.dtd">
<!-- Creator: CorelDRAW -->
<svg xmlns="http://www.w3.org/2000/svg" xml:space="preserve" width="110mm" height="43.403mm" version="1.1" style="shape-rendering:geometricPrecision; text-rendering:geometricPrecision; image-rendering:optimizeQuality; fill-rule:evenodd; clip-rule:evenodd"
viewBox="0 0 11000 4340.3"
 xmlns:xlink="http://www.w3.org/1999/xlink"
 xmlns:xodm="http://www.corel.com/coreldraw/odm/2003">
 <defs>
  <style type="text/css">
   <![CDATA[
    .fil1 {fill:#E31E24}
    .fil2 {fill:#0D98B6}
    .fil0 {fill:#2DA83E}
    .fil3 {fill:#0D98B6;fill-rule:nonzero}
   ]]>
  </style>
 </defs>
 <g id="Слой_x0020_1">
  <metadata id="CorelCorpID_0Corel-Layer"/>
  <path class="fil0" d="M809.1 3729.98c6.31,-318.14 26.21,-512.62 94.44,-720.8 131.69,-401.78 422.38,-779 735.58,-1051.98 620.95,-541.23 1123.77,-730.22 1607.32,-895.28 -589.74,-282.4 -2855.35,190.61 -3080.77,1192.39 -106.86,474.73 281.09,1183.22 643.43,1475.67z"/>
  <path class="fil1" d="M917.64 3613.46c224.08,-331.86 431.9,-617.36 1014.62,-794.52 130.04,308.78 346.43,840.28 804.76,997.26 -156.1,-593.02 -155.89,-940.5 -79.59,-1293.42 92.54,-427.95 268.18,-783.98 535.17,-1210.95 -515.94,74.93 -1152.6,514.6 -1441.03,764.54 -368.86,319.62 -767.54,819.19 -833.93,1537.09z"/>
  <path class="fil2" d="M126.23 1938.65c346.78,-460.73 847.73,-734.98 1404.66,-900.29 481.93,-143.05 1005.8,-208.78 1507.91,-191.84 -28.43,-306.74 -285.61,-659.49 -478.44,-727.78 -281.44,-75.36 -796.75,-3 -1029.44,84.31 -402.52,135.11 -725.34,384.67 -973.17,691.83 -196.15,243.1 -403.54,718.79 -431.52,1043.77z"/>
  <path class="fil0" d="M3255.14 3999.61c23.39,-478.41 41.27,-637.05 140.97,-832.7 266.24,6.1 343.99,33.34 532.55,-102.66 115.75,-83.47 265.18,-254.21 302.61,-434.8 -293.08,-10.3 -493.14,-81.28 -676.77,-251.6 -220.62,-204.57 -337.22,-369.04 -399.66,-657.12 -407.28,471.38 -620.5,1953.37 100.3,2278.88z"/>
  <path class="fil2" d="M3530.19 566.85c-110,402.73 -327.91,779.03 -180.83,1268.2 125.37,307.69 486.16,691.79 900.5,689.78 145.24,-548.81 -118.47,-1515.71 -719.67,-1957.98z"/>
  <path class="fil2" d="M961.41 3853.9c738.54,497.73 1447.8,514.7 2148.91,198.29 -259.89,-24.69 -653.52,-10.26 -926.68,-312.2 -159.95,-176.89 -272.91,-407.74 -370.06,-670.25 -241.94,67.24 -716.56,383.76 -852.17,784.16z"/>
  <path class="fil0" d="M2719.91 148.04c317.39,183.41 437.69,462.56 512.12,743.94 134.77,-129.96 180.98,-240.59 248.08,-365.34 -185.07,-162.7 -572.42,-341.84 -760.2,-378.6z"/>
  <path class="fil3" d="M5907.81 1711.24l-415.86 0c-140.97,0 -245.74,-38.53 -314.32,-115.57 -66.75,-75.22 -100.12,-196.43 -100.12,-363.72 0,-180.41 32,-308.22 95.88,-383.43 70.49,-82.69 178.09,-124.04 322.8,-124.04l396.1 0 0 148.03 -308.69 0c-66.74,0 -120.33,5.64 -160.72,16.93 -40.39,11.25 -73.27,36.16 -98.67,74.68 -36.66,54.51 -54.97,142.84 -54.97,265.01 0,110.91 15.49,190.78 46.5,239.64 23.53,36.66 56.16,61.56 98,74.72 41.81,13.16 95.15,19.76 159.99,19.76l334.08 0 0 147.99zm-768.25 1933.5l-76.34 0 0 -814.28 92.32 0 0 814.28 -15.98 0zm834.04 -798.3l0 704.11c0,14.74 -1.76,28.26 -5.29,40.46 -3.63,12.67 -9.17,23.71 -16.58,33.09 -7.76,9.88 -17.32,17.36 -28.58,22.33 -10.93,4.84 -23.32,7.27 -37.04,7.27 -9.98,0 -19.37,-1.34 -28.08,-3.99 -8.89,-2.61 -16.9,-6.7 -24.06,-12.17 -6.63,-5.11 -13.26,-11.85 -20,-20.21 -6.28,-7.8 -12.81,-17.25 -19.62,-28.26l-409.04 -660.5c-2.82,-4.55 -5.54,-7.87 -8.15,-9.81 -0.85,-0.67 -1.73,-1.09 -2.58,-1.38l-1.69 2.01 -0.18 0.46c-0.24,0.81 -0.35,2.05 -0.35,3.71l0 721.18 -92.32 0 0 -727.89c0,-9.94 0.85,-19.19 2.54,-27.69 1.76,-8.68 4.48,-16.72 8.15,-24.09 3.6,-7.38 8.01,-13.73 13.09,-19.05 5.29,-5.54 11.32,-9.88 17.92,-12.92 5.43,-2.54 10.26,-4.55 14.46,-6.03 4.48,-1.62 8.79,-2.82 12.84,-3.56 3.35,-0.6 6.81,-1.09 10.34,-1.41 3.88,-0.36 7.37,-0.57 10.41,-0.57 23.14,0 41.66,5.72 55.42,17.11 6.17,5.12 12.24,11.4 18.27,18.84 5.65,6.95 11.29,15.06 16.93,24.2l411.31 663.86c3.17,5.15 6.17,8.89 8.89,11.11l0.6 0.5c6.59,-238.48 0.1,-487.05 0.1,-726.69l92.29 0 0 15.98zm200.84 798.3l-76.31 0 0 -814.28 92.29 0 0 814.28 -15.98 0zm453.67 0l-76.31 0 0 -728.66 -327.45 0 0 -85.62 747.22 0 0 85.62 -327.44 0 0 728.66 -16.02 0zm453.71 0l-76.34 0 0 -814.28 92.32 0 0 814.28 -15.98 0zm62.4 -22.15l299.51 -708.56c5.82,-13.72 11.89,-25.89 18.24,-36.51 6.7,-11.25 13.69,-20.89 20.88,-28.89 8.12,-9 17.5,-15.81 28.09,-20.32 10.54,-4.52 22.08,-6.78 34.64,-6.78 12.52,0 24.06,2.26 34.57,6.78 10.62,4.51 20,11.32 28.08,20.35 7.23,7.97 14.22,17.64 20.92,28.86 6.35,10.62 12.45,22.82 18.24,36.51l308.89 730.71 -99.48 0 -94.97 -227.96 -432.54 0 -94.97 227.96 -99.48 0 9.38 -22.15zm383.65 -678.36l-161.75 386.93 358.88 0 -161.75 -386.93c-5.71,-13.69 -10.93,-23.74 -15.63,-30.16 -2.25,-3.14 -1.2,-4.7 -2.04,-4.7 -0.88,0 0.17,1.56 -2.08,4.7 -4.7,6.42 -9.95,16.51 -15.63,30.16zm670.42 700.51l-76.31 0 0 -728.66 -327.48 0 0 -85.62 747.25 0 0 85.62 -327.48 0 0 728.66 -15.98 0zm453.71 0l-76.35 0 0 -814.28 92.33 0 0 814.28 -15.98 0zm148.87 -803.98l274.88 713.95c1.27,3.21 2.58,5.36 3.85,6.49l0.35 0.18c1.02,0 2.43,-2.26 4.23,-6.74l278.8 -724.18 102.56 0c-96.49,242.64 -221.69,518.97 -302.69,761.89 -3.07,7.48 -7.05,14.64 -11.92,21.49 -4.76,6.63 -10.44,13.08 -17.08,19.29 -7.3,6.85 -15.52,12 -24.65,15.46 -9.04,3.38 -18.81,5.11 -29.25,5.11 -39.26,0 -66.96,-20.57 -83.01,-61.63l-302.54 -761.61 102.52 0 3.95 10.3zm1267.03 803.98l-463.79 0c-20.82,0 -38.77,-2.19 -53.84,-6.49 -16.26,-4.69 -29.28,-11.92 -39.01,-21.66 -10.09,-10.09 -17.61,-23.57 -22.48,-40.39 -4.55,-15.74 -6.84,-34.37 -6.84,-55.85l0 -569.98c0,-35.81 8.75,-64.17 26.14,-85.02l0.04 -0.14c10.02,-11.86 23.24,-20.75 39.58,-26.53 15.31,-5.47 33.41,-8.22 54.18,-8.22l477.52 0 0 85.62 -468.59 0c-7.62,0 -14.04,0.7 -19.23,2.15 -4.44,1.23 -8.08,3 -10.76,5.26l-0.17 0.14c-1.63,1.3 -2.97,3.7 -4.06,7.16 -1.52,4.94 -2.33,11.46 -2.33,19.58l0 235.48 494 0 0 85.62 -494 0 0 262.29c0,5.25 0.64,9.66 1.87,13.08 0.92,2.69 2.29,4.8 4.02,6.35 1.52,1.38 5.08,2.65 10.59,3.74 7.3,1.45 16.97,2.19 29.03,2.19l464.11 0 0 85.62 -15.98 0zm96.91 -15.98l0 -69.64 457.45 0c24.94,0 43.46,-8.85 55.53,-26.53 13.4,-19.58 20.1,-50.13 20.1,-91.58 0,-14 -1.44,-26.81 -4.37,-38.31 -2.86,-11.22 -7.09,-21.38 -12.74,-30.37 -5.29,-8.47 -13.51,-16.34 -24.58,-23.61 -12,-7.79 -27.24,-14.85 -45.79,-21.13l-311.86 -107.31c-22.68,-7.8 -42.51,-16.86 -59.48,-27.1 -17.35,-10.51 -31.85,-22.4 -43.43,-35.63 -14.53,-16.61 -25.43,-36.54 -32.59,-59.72 -7.02,-22.65 -10.51,-48.33 -10.51,-77.01 0,-32.46 4.76,-60.93 14.25,-85.37 9.73,-25.16 24.45,-45.9 44.06,-62.16 16.9,-14.36 36.69,-25.12 59.3,-32.28 22.26,-7.02 47.24,-10.55 74.93,-10.55l412.72 0 0 85.62 -419.42 0c-31.15,0 -54.43,8.29 -69.85,24.87 -5.96,6.63 -10.62,16.37 -13.87,29.24 -3.56,14.11 -5.36,31.72 -5.36,52.85 0,7.55 0.18,14.08 0.5,19.44 0.31,5.78 0.84,10.79 1.48,14.99 0.74,4.38 1.73,8.82 3.03,13.3 1.41,4.73 3.25,9.95 5.54,15.56 1.87,4.65 4.41,9.03 7.51,13.09 3.29,4.26 7.17,8.18 11.65,11.78 4.69,3.74 10.37,7.44 16.93,10.97 6.67,3.6 14.04,6.88 22.01,9.88l303.99 107.28c29.11,10.33 53.41,20.46 72.92,30.44 20.36,10.34 35.98,20.78 46.85,31.22 17.74,16.97 31.08,37.08 39.9,60.29 8.71,22.9 13.09,48.76 13.09,77.47 0,31.08 -3.39,58.92 -10.16,83.54 -6.88,25.15 -17.25,46.74 -31.19,64.74 -14.71,19.4 -33.9,33.93 -57.43,43.6 -22.9,9.42 -49.71,14.11 -80.4,14.11l-450.71 0 0 -15.98zm-4996.71 -980.19l-71.72 0 0 -665.27c0,-12.53 1.98,-24.03 5.97,-34.5 4.02,-10.59 10.08,-20.01 18.09,-28.08 8.65,-9.11 19.69,-15.88 33.06,-20.36 12.59,-4.2 27.09,-6.31 43.5,-6.31l430.91 0 0 81.49 -435.04 0c-2.89,0 -5.05,0.24 -6.35,0.67l-0.04 -0.11c-0.63,0.64 -1.13,1.73 -1.48,3.14 -0.6,2.26 -0.92,5.33 -0.92,9.24l0 235.87 324.1 0 0 81.53 -324.1 0 0 342.69 -15.98 0zm18.35 -672.47c0.07,-0.14 0.21,-0.32 0.07,-0.18l-0.07 0.18zm847.69 -90.31c11.5,0 23.6,0.21 36.19,0.56 11.86,0.39 22.4,0.92 31.51,1.56 9.77,0.7 20.42,1.9 31.96,3.49 11.25,1.55 23.39,3.6 36.44,6.07 13.4,2.54 26.42,5.89 39.02,10.09 12.73,4.27 24.87,9.27 36.37,15.02 11.96,6.04 23.21,12.85 33.76,20.47 10.65,7.72 20.81,16.36 30.3,25.89 10.16,10.16 19.51,21.2 28.01,33.13 8.4,11.78 15.91,24.37 22.47,37.67 6.53,13.27 12.14,26.99 16.73,41.1 4.55,13.94 8.22,28.51 10.97,43.64 2.64,14.68 4.8,28.19 6.45,40.43 1.7,12.7 2.93,24.27 3.6,34.64 0.67,9.81 1.17,21.03 1.55,33.51 0.39,13.37 0.6,26.11 0.6,38.25 0,12.13 -0.21,24.87 -0.6,38.2 -0.38,12.49 -0.88,23.71 -1.55,33.59 -1.37,20.67 -4.76,45.72 -10.05,75.03 -2.75,15.14 -6.39,29.71 -10.97,43.64 -4.59,14.11 -10.2,27.83 -16.73,41.1 -6.56,13.3 -14.07,25.89 -22.47,37.68 -8.39,11.78 -17.74,22.82 -28.01,33.09 -17.5,17.53 -36.62,32.03 -57.22,43.46 -20.67,11.46 -42.79,19.75 -66.32,24.9 -22.37,4.91 -46.43,8.58 -72.04,11.08 -25.65,2.51 -52.35,3.78 -79.97,3.78 -25.54,0 -48.12,-0.74 -67.7,-2.16 -9.74,-0.7 -20.43,-1.9 -31.96,-3.49 -11.22,-1.55 -23.39,-3.6 -36.41,-6.07 -13.4,-2.5 -26.42,-5.89 -39.02,-10.09 -12.59,-4.23 -24.76,-9.24 -36.4,-15.06 -11.93,-5.96 -23.22,-12.8 -33.73,-20.42 -10.55,-7.62 -20.67,-16.27 -30.3,-25.9 -10.2,-10.12 -19.51,-21.2 -28.01,-33.12 -8.43,-11.79 -15.95,-24.35 -22.51,-37.68 -6.53,-13.27 -12.1,-26.99 -16.72,-41.1 -4.55,-13.93 -8.22,-28.5 -10.94,-43.64 -2.68,-14.67 -4.83,-28.19 -6.45,-40.43 -1.7,-12.7 -2.93,-24.27 -3.6,-34.6 -0.67,-9.88 -1.2,-21.06 -1.55,-33.55 -0.43,-13.34 -0.6,-26.07 -0.6,-38.24 0,-26.85 0.7,-50.77 2.15,-71.76 0.67,-10.37 1.9,-21.94 3.6,-34.64 1.62,-12.24 3.77,-25.75 6.45,-40.43 2.72,-15.13 6.39,-29.7 10.94,-43.64 4.62,-14.11 10.19,-27.83 16.72,-41.1 6.56,-13.3 14.08,-25.89 22.51,-37.67 8.36,-11.75 17.71,-22.79 28.01,-33.09 17.64,-17.64 36.76,-32.14 57.29,-43.5 20.67,-11.43 42.76,-19.72 66.22,-24.87 22.4,-4.91 46.42,-8.58 72.07,-11.08 25.64,-2.51 52.31,-3.74 79.94,-3.74zm-271.57 296.83c-0.88,11.99 -1.52,25.12 -1.91,39.33 -0.38,13.34 -0.6,29.78 -0.6,49.36 0,36.37 0.85,65.93 2.51,88.68 0.81,11.15 2.57,23.18 5.26,36.13 2.71,13.3 6.45,27.62 11.11,42.97 4.48,14.71 10.02,28.18 16.61,40.39 6.42,11.92 13.87,22.58 22.33,32 8.65,9.63 18.63,18.13 29.85,25.43 11.32,7.41 24.02,13.65 38.03,18.77 14.6,5.29 27.87,9.45 39.79,12.42 11.61,2.86 21.84,4.62 30.69,5.22 10.06,0.7 21.35,1.23 33.76,1.55 11.36,0.32 26.11,0.46 44.14,0.46 17.99,0 32.73,-0.14 44.13,-0.46 12.45,-0.32 23.71,-0.81 33.8,-1.55 8.85,-0.6 19.08,-2.36 30.65,-5.22 11.96,-2.97 25.26,-7.13 39.8,-12.42 14.04,-5.12 26.7,-11.36 38.06,-18.77 11.22,-7.3 21.2,-15.8 29.88,-25.4 8.4,-9.45 15.88,-20.11 22.3,-32.03 6.59,-12.17 12.13,-25.68 16.61,-40.39 4.66,-15.35 8.36,-29.67 11.11,-42.94 2.69,-12.98 4.41,-25.01 5.23,-36.16 0.88,-11.96 1.55,-25.08 1.94,-39.33 0.38,-13.34 0.6,-29.78 0.6,-49.35 0,-36.34 -0.85,-65.94 -2.54,-88.69 -0.82,-11.12 -2.54,-23.18 -5.23,-36.16 -2.75,-13.27 -6.45,-27.59 -11.11,-42.9 -4.48,-14.71 -10.02,-28.22 -16.61,-40.43 -6.42,-11.89 -13.87,-22.58 -22.37,-32 -8.61,-9.63 -18.59,-18.09 -29.81,-25.43 -11.47,-7.44 -24.17,-13.72 -38.06,-18.77 -14.54,-5.29 -27.84,-9.42 -39.8,-12.38 -11.57,-2.89 -21.8,-4.62 -30.65,-5.26 -10.09,-0.7 -21.35,-1.23 -33.8,-1.55 -11.4,-0.28 -26.14,-0.46 -44.13,-0.46 -18.03,0 -32.78,0.18 -44.14,0.46 -12.41,0.32 -23.7,0.85 -33.76,1.55 -8.85,0.64 -19.08,2.37 -30.69,5.26 -11.92,2.96 -25.22,7.09 -39.79,12.38 -14.01,5.12 -26.71,11.36 -38.03,18.77 -11.15,7.23 -21.1,15.77 -29.85,25.43 -8.46,9.39 -15.91,20.11 -22.33,32 -6.59,12.21 -12.13,25.72 -16.61,40.43 -4.66,15.31 -8.4,29.63 -11.11,42.93 -2.69,12.95 -4.45,25.01 -5.26,36.13zm729.4 449.97l0 -612.11c0,-43.92 11.78,-76.45 35.32,-97.54 10.97,-9.84 24.13,-17.15 39.33,-21.95 14.64,-4.62 31.26,-6.94 49.71,-6.94l304.51 0c34.58,0 64.42,5.64 89.4,16.93 25.68,11.57 46.11,29.03 61.24,52.32 11.75,17.85 20.5,40.67 26.25,68.43 5.57,27.06 8.36,58.74 8.36,95.08 0,34.36 -2.79,64.73 -8.36,91.05 -5.72,26.95 -14.43,49.67 -26.14,68.12 -15.1,23.64 -34.72,41.31 -58.85,53.09 -23.7,11.58 -51.61,17.4 -83.64,17.4l-122.56 0 344.67 292.1 -130.92 0 -323.42 -276.33c-4.66,-3.92 -8.54,-7.41 -11.58,-10.34 -3.59,-3.49 -6.2,-6.46 -7.86,-8.96 -2.12,-3.11 -3.64,-6.7 -4.59,-10.66 -0.85,-3.42 -1.27,-7.12 -1.27,-11.11l0 -16.51c0,-26.49 13.58,-39.72 40.78,-39.72l223.98 0c13.87,0 25.82,-2.72 35.81,-8.11 9.81,-5.33 18.17,-13.52 24.9,-24.52 5.44,-9.49 9.6,-23.89 12.53,-43.04 3.14,-20.53 4.72,-46.04 4.72,-76.59 0,-33.9 -2.68,-61.63 -8.04,-83.15 -4.9,-19.83 -11.92,-34.01 -20.99,-42.54 -7.37,-6.85 -17.07,-12.1 -29,-15.67 -12.73,-3.84 -27.97,-5.78 -45.75,-5.78l-295.21 0c-6.81,0 -12.52,0.7 -17.07,2.11 -3.81,1.13 -6.92,2.83 -9.28,5.01 -3.03,2.83 -5.33,6.18 -6.81,10.02 -1.66,4.24 -2.47,9.39 -2.47,15.42l0 640.47 -87.7 0 0 -15.98zm1214.4 -318.56l256.37 -419.98 99.41 0 -311.93 505.53 0 248.99 -87.7 0 0 -248.99 -311.92 -505.53 99.41 0 256.36 419.98zm708.14 -428.24c11.5,0 23.56,0.21 36.15,0.56 11.89,0.39 22.41,0.92 31.54,1.56 9.74,0.7 20.43,1.9 31.93,3.49 11.25,1.55 23.39,3.6 36.48,6.07 13.37,2.54 26.38,5.89 38.98,10.09 12.84,4.3 25.01,9.31 36.41,15.02 11.92,6.04 23.21,12.85 33.72,20.47 10.69,7.72 20.81,16.36 30.34,25.89 10.16,10.16 19.47,21.2 28.01,33.13 8.4,11.78 15.88,24.37 22.44,37.67 6.52,13.27 12.13,26.99 16.75,41.1 4.55,13.94 8.22,28.51 10.98,43.64 2.64,14.71 4.79,28.22 6.42,40.5 1.69,12.73 2.92,24.27 3.59,34.57 1.45,20.99 2.16,44.91 2.16,71.76 0,26.88 -0.71,50.8 -2.16,71.79 -0.67,10.26 -1.9,21.8 -3.59,34.53 -1.63,12.28 -3.78,25.79 -6.42,40.5 -2.76,15.14 -6.43,29.71 -10.98,43.64 -4.62,14.11 -10.23,27.83 -16.75,41.1 -6.56,13.3 -14.04,25.89 -22.44,37.68 -8.43,11.78 -17.78,22.82 -28.01,33.09 -17.5,17.53 -36.62,32.03 -57.26,43.46 -20.67,11.46 -42.75,19.75 -66.28,24.9 -22.4,4.91 -46.46,8.58 -72.08,11.08 -25.64,2.51 -52.31,3.78 -79.93,3.78 -25.55,0 -48.16,-0.74 -67.7,-2.16 -9.74,-0.7 -20.43,-1.9 -31.96,-3.49 -11.22,-1.55 -23.39,-3.6 -36.45,-6.07 -13.4,-2.5 -26.42,-5.89 -39.01,-10.09 -12.6,-4.23 -24.73,-9.24 -36.38,-15.06 -11.95,-5.96 -23.24,-12.8 -33.76,-20.42 -10.69,-7.73 -20.81,-16.37 -30.3,-25.9 -10.27,-10.3 -19.61,-21.34 -28.01,-33.12 -8.4,-11.79 -15.91,-24.35 -22.47,-37.68 -6.53,-13.27 -12.14,-26.99 -16.76,-41.1 -4.55,-13.93 -8.22,-28.5 -10.94,-43.64 -2.64,-14.67 -4.79,-28.19 -6.45,-40.43 -1.69,-12.7 -2.89,-24.27 -3.6,-34.6 -0.63,-9.88 -1.2,-21.06 -1.55,-33.55 -0.39,-13.34 -0.57,-26.07 -0.57,-38.24 0,-26.85 0.71,-50.77 2.12,-71.76 0.71,-10.37 1.91,-21.94 3.6,-34.64 1.66,-12.24 3.81,-25.75 6.45,-40.43 2.72,-15.13 6.39,-29.7 10.94,-43.64 4.62,-14.11 10.23,-27.83 16.76,-41.1 6.56,-13.3 14.07,-25.89 22.47,-37.67 8.5,-11.93 17.85,-23.01 28.01,-33.13 17.53,-17.57 36.65,-32.07 57.29,-43.46 20.67,-11.43 42.79,-19.72 66.25,-24.87 22.37,-4.91 46.43,-8.58 72.08,-11.08 25.64,-2.51 52.28,-3.74 79.94,-3.74zm-271.57 296.83c-0.89,11.99 -1.56,25.12 -1.94,39.33 -0.39,13.34 -0.57,29.78 -0.57,49.36 0,36.37 0.81,65.93 2.51,88.68 0.77,11.15 2.57,23.18 5.22,36.13 2.75,13.3 6.45,27.62 11.11,42.97 4.48,14.71 10.02,28.18 16.62,40.39 6.42,11.92 13.9,22.58 22.33,32 8.64,9.63 18.62,18.13 29.84,25.43 11.36,7.41 24.06,13.65 38.07,18.77 14.57,5.29 27.83,9.45 39.79,12.42 11.57,2.86 21.84,4.62 30.69,5.22 10.06,0.7 21.34,1.23 33.76,1.55 11.36,0.32 26.11,0.46 44.14,0.46 17.99,0 32.7,-0.14 44.09,-0.46 12.46,-0.32 23.74,-0.81 33.8,-1.55 8.85,-0.6 19.08,-2.36 30.65,-5.22 11.96,-2.97 25.26,-7.13 39.83,-12.42 14.01,-5.12 26.71,-11.36 38.03,-18.77 11.22,-7.3 21.2,-15.8 29.88,-25.4 8.4,-9.45 15.91,-20.11 22.3,-32.03 6.6,-12.21 12.13,-25.68 16.65,-40.39 4.62,-15.35 8.36,-29.67 11.08,-42.94 2.68,-12.98 4.44,-25.01 5.25,-36.16 0.89,-11.96 1.52,-25.08 1.94,-39.33 0.36,-13.34 0.57,-29.78 0.57,-49.35 0,-36.34 -0.85,-65.94 -2.51,-88.69 -0.81,-11.12 -2.57,-23.18 -5.25,-36.16 -2.72,-13.27 -6.46,-27.59 -11.08,-42.9 -8.93,-29.35 -21.94,-53.48 -38.98,-72.43 -8.75,-9.66 -18.7,-18.2 -29.85,-25.43 -11.46,-7.44 -24.13,-13.72 -38.03,-18.77 -14.57,-5.29 -27.87,-9.42 -39.83,-12.38 -11.57,-2.89 -21.8,-4.62 -30.65,-5.26 -10.06,-0.7 -21.34,-1.23 -33.8,-1.55 -11.39,-0.28 -26.1,-0.46 -44.09,-0.46 -18.03,0 -32.78,0.18 -44.14,0.46 -12.45,0.32 -23.7,0.85 -33.76,1.55 -8.85,0.64 -19.12,2.37 -30.69,5.26 -11.96,2.96 -25.22,7.09 -39.79,12.38 -14.01,5.12 -26.71,11.36 -38.07,18.77 -11.11,7.23 -21.09,15.77 -29.84,25.43 -8.43,9.39 -15.91,20.08 -22.33,32 -6.6,12.21 -12.14,25.72 -16.62,40.43 -4.66,15.31 -8.36,29.63 -11.11,42.93 -2.65,12.95 -4.45,25.01 -5.22,36.13zm745.35 -288.57l71.72 0 0 493.92c0,33.13 2.96,61.28 8.81,84.38 5.54,21.98 13.73,39.27 24.49,51.83l0.1 0.14c13.83,16.51 34.54,29.03 62.16,37.57 28.97,8.96 65.44,13.44 109.36,13.44 43.92,0 80.4,-4.48 109.4,-13.44 27.59,-8.54 48.3,-21.06 62.09,-37.57l0.14 -0.14c10.76,-12.56 18.91,-29.85 24.52,-51.83 5.82,-23.1 8.78,-51.25 8.78,-84.38l0 -493.92 87.7 0 0 513.53c0,35.6 -4.58,67.6 -13.72,95.96 -9.28,28.75 -23.32,53.66 -42.02,74.65l-0.14 0.1c-47.9,52.36 -126.86,78.57 -236.75,78.57 -109.89,0 -188.84,-26.21 -236.75,-78.57l-0.14 -0.1c-18.69,-20.96 -32.7,-45.86 -42.01,-74.69 -9.14,-28.32 -13.73,-60.32 -13.73,-95.92l0 -513.53 15.99 0zm963.11 754.52l-71.75 0 0 -673.03 -302.44 0 0 -81.49 692.61 0 0 81.49 -302.47 0 0 673.03 -15.95 0zm950.14 -738.54l0 738.54 -87.7 0 0 -342.69 -436.7 0 0 342.69 -87.67 0 0 -754.52 87.67 0 0 330.3 436.7 0 0 -330.3 87.7 0 0 15.98zm-3976.05 -198.79l-641.39 0c-53.58,0 -91.15,-10.34 -112.78,-31.01 -24.45,-23.5 -36.65,-62.02 -36.65,-115.61l0 -699.17c0,-43.21 11.29,-77.5 33.83,-102.9 23.49,-25.37 62.97,-38.07 118.43,-38.07l632.91 0 0 148.03 -532.83 0c-23.5,0 -40.43,4.69 -50.77,14.11 -10.33,9.38 -15.48,25.36 -15.48,47.9l0 198.76 584.97 0 0 148.03 -584.97 0 0 231.17c0,17.85 4.69,30.52 14.07,38.07 8.47,8.46 29.6,12.7 63.43,12.7l527.23 0 0 147.99zm1071.31 -986.76l0 858.49c0,46.99 -13.61,81.98 -40.88,105.02 -27.24,23 -62.48,34.5 -105.73,34.5 -71.4,0 -124.53,-27.69 -159.28,-83.15l-415.85 -656.87c-10.34,-15.98 -17.82,-23.99 -22.55,-23.99 -4.69,0 -9.17,2.61 -13.4,7.76 -4.2,5.15 -6.32,11.99 -6.32,20.46l0 724.54 -180.44 0 0 -864.1c0,-42.3 13.37,-75.18 40.18,-98.71 26.77,-23.46 63.67,-35.2 110.63,-35.2 71.44,0 123.61,25.82 156.49,77.5l418.68 661.11c0.92,1.9 2.33,4.48 4.2,7.79 1.87,3.29 3.52,5.86 4.94,7.73 1.41,1.91 3.28,3.78 5.64,5.64 2.33,1.87 4.94,2.83 7.76,2.83 10.34,0 15.49,-7.98 15.49,-23.99l0 -727.36 180.44 0zm641.39 986.76l-186.09 0 0 -838.73 -384.81 0 0 -148.03 957.12 0 0 148.03 -386.22 0 0 838.73zm1247.53 0l-641.39 0c-53.59,0 -91.16,-10.34 -112.78,-31.01 -24.45,-23.5 -36.65,-62.02 -36.65,-115.61l0 -699.17c0,-43.21 11.28,-77.5 33.83,-102.9 23.49,-25.37 62.97,-38.07 118.42,-38.07l632.92 0 0 148.03 -532.83 0c-23.5,0 -40.43,4.69 -50.77,14.11 -10.33,9.38 -15.48,25.36 -15.48,47.9l0 198.76 584.97 0 0 148.03 -584.97 0 0 231.17c0,17.85 4.69,30.52 14.07,38.07 8.47,8.46 29.6,12.7 63.43,12.7l527.23 0 0 147.99zm126.86 0l0 -819.01c0,-59.2 13.61,-101.96 40.88,-128.27 27.24,-26.32 66.71,-39.48 118.4,-39.48l467.99 0c30.09,0 55,1.41 74.72,4.23 19.72,2.83 43,11.29 69.78,25.4 26.77,14.08 49.1,34.29 66.96,60.61 32.87,47.91 49.35,120.3 49.35,217.07 0,95.88 -14.11,170.11 -42.3,222.74 -35.74,67.66 -97.72,101.49 -186.09,101.49l-126.86 0 0 7.02 374.97 348.2 -234 0 -324.2 -319.97c-31.01,-31.05 -46.53,-58.74 -46.53,-83.19l0 -22.54c0,-20.67 7.26,-37.15 21.83,-49.35 14.57,-12.21 35.04,-18.31 61.32,-18.31l186.09 0c48.86,0 82.69,-14.57 101.49,-43.71 15.03,-23.5 22.54,-68.62 22.54,-135.33 0,-67.66 -11.74,-113.24 -35.24,-136.74 -19.72,-19.75 -54.5,-29.59 -104.28,-29.59l-301.7 0c-21.59,0 -38.06,5.18 -49.31,15.52 -13.16,11.25 -19.76,29.56 -19.76,54.96l0 768.25 -186.05 0z"/>
 </g>
</svg>
